<svg xmlns="http://www.w3.org/2000/svg" viewBox="0 0 1167 829.55"><defs><style>.cls-1{fill:#fff;}.cls-2{font-size:216px;font-family:MicrosoftJhengHeiRegular, Microsoft JhengHei;}</style></defs><title>Asset 3</title><g id="Layer_2" data-name="Layer 2"><g id="Layer_1-2" data-name="Layer 1"><rect x="796" y="196" width="83" height="379"/><path d="M174,196h18A150,150,0,0,1,342,346v79A150,150,0,0,1,192,575H174A100,100,0,0,1,74,475V296A100,100,0,0,1,174,196Z"/><path class="cls-1" d="M156,326.67h33.72A42.28,42.28,0,0,1,232,369V404a46,46,0,0,1-46,46H156V409.64l33.84.1V368.2L156,368.06Z"/><rect x="384" y="222" width="274" height="353" rx="131.89"/><rect x="365" y="295" width="60" height="104" rx="30"/><rect x="616" y="295" width="60" height="104" rx="30"/><rect class="cls-1" x="232" y="374" width="55" height="29"/><rect class="cls-1" x="271.67" y="353.51" width="89.96" height="29" transform="translate(-141.58 207.64) rotate(-30)"/><rect class="cls-1" x="486" y="311" width="67" height="207" rx="33.5"/><path d="M520,162h0a70,70,0,0,1,70,70v8.8a1.2,1.2,0,0,1-1.2,1.2H451.2a1.2,1.2,0,0,1-1.2-1.2V232A70,70,0,0,1,520,162Z"/><path class="cls-1" d="M516,192h7a30,30,0,0,1,30,30v12a0,0,0,0,1,0,0H486a0,0,0,0,1,0,0V222A30,30,0,0,1,516,192Z"/><path d="M706.27,0h0A93.73,93.73,0,0,1,800,93.73v474a7.27,7.27,0,0,1-7.27,7.27h0A93.73,93.73,0,0,1,699,481.27V7.27A7.27,7.27,0,0,1,706.27,0Z"/><rect width="101" height="575"/><rect class="cls-1" x="758.86" y="374" width="55" height="29" transform="translate(1572.72 777) rotate(-180)"/><rect class="cls-1" x="684.22" y="353.51" width="89.96" height="29" transform="translate(1176.7 1051.32) rotate(-150)"/><path d="M967,196h200a0,0,0,0,1,0,0V323a0,0,0,0,1,0,0H912a0,0,0,0,1,0,0V251A55,55,0,0,1,967,196Z"/><rect x="912" y="288" width="79" height="71"/><path d="M912,352h200.3a54.7,54.7,0,0,1,54.7,54.7V421a0,0,0,0,1,0,0H962.55A50.55,50.55,0,0,1,912,370.45V352A0,0,0,0,1,912,352Z"/><rect x="1100" y="399" width="67" height="88"/><path d="M912,450h255a0,0,0,0,1,0,0v73.4a51.6,51.6,0,0,1-51.6,51.6H912a0,0,0,0,1,0,0V450A0,0,0,0,1,912,450Z"/><text class="cls-2" transform="translate(11.31 773.12)">Bits &amp; Bots</text><path class="cls-1" d="M889,323.67H813V407a40,40,0,0,0,40,40h36V406.64l-33.84.1V365.2l33.84-.14Z"/></g></g></svg>