<svg xmlns="http://www.w3.org/2000/svg" viewBox="0 0 1169 831"><defs><style>.cls-1{fill:#fff;}</style></defs><title>Asset 4</title><g id="Layer_2" data-name="Layer 2"><g id="Layer_1-2" data-name="Layer 1"><path class="cls-1" d="M1169,533V831H0V577H103.3V547.61C105,549.08,106,550,107,550.83c13.91,12.57,29.91,21.45,48.47,24.15,12.44,1.81,25.19,1.78,37.81,2A138.86,138.86,0,0,0,268,557.09c47.13-28.27,72.83-70,75.8-125.06,1-18.44.18-37,.13-55.48a47.68,47.68,0,0,0-.74-5.71c-13.59,7.83-26.84,14.55-39.09,22.78s-24.76,12-39.45,10.59c-10.37-1-20.9-.19-31.53-.19-.14,1.61-.25,2.73-.33,3.86-1.46,20.55-16.15,38.54-36.18,41.72-12.84,2-26.1,1.37-39.36,1.92V410.7h33.39V368.81H157V327.86c12.11,0,23.44-.2,34.76.05a41.76,41.76,0,0,1,40.48,35.4c.61,3.72.74,7.52,1.13,11.69,14.77,0,29.4,0,44-.05a6.91,6.91,0,0,0,3.24-1.11c19.76-11.36,39.56-22.67,59.15-34.32a8.66,8.66,0,0,0,3.52-6.69c-4.85-59.65-47.68-112.23-105-130.1-20.75-6.47-41.89-6.91-63.25-6.77-26.15.17-48.8,9-68.22,26.39-1,.9-2.15,1.67-3.81,3V0H704c-3.14,2.41-5.09,5.14-5.08,9.54q.15,159.74,0,319.46c0,3.93,1.39,6.34,4.87,8.32,19.11,10.84,38.2,21.72,57,33a30.67,30.67,0,0,0,18.31,4.78c11.18-.64,22.39-.74,34-1.08V323.39h67.6V195.93H802V94c0-42.51-29.42-80.46-70.55-91-4.13-1.06-8.3-2-12.45-3h450V196q-101.24,0-202.46,0C937.2,196,912,221.28,912,250.67q-.06,60.75,0,121.48A51.18,51.18,0,0,0,962.91,423h136.71v27.16H912.31V577H916c67.66,0,135.31.14,203-.11,15.31,0,27.79-7.08,37.83-18.57C1163.24,551,1166.31,542.13,1169,533ZM384,428c0,6-.15,12,0,18,1.37,47.05,21.88,83.66,60.71,109.9,27.93,18.86,59.43,23.29,92.23,21,69.15-4.87,123-62.94,123-132.31,0-13.83.08-27.66-.06-41.5,0-3.1.68-5,3.57-6.76,9.09-5.61,14.26-14,14.43-24.76.24-15.67.16-31.33,0-47-.12-15-13-28.61-28-29.37-3.1-.15-4.65-1.15-6.09-3.81A128.13,128.13,0,0,0,597,241.89c-4-2.43-5.12-5-5.11-9.45.15-45.34-42.8-79.21-86.92-68.72-32.73,7.78-55,35.93-55,69.57,0,3.37.57,6.44-3.44,8.88-20.05,12.24-35.46,29-46.86,49.52a7.35,7.35,0,0,1-5.2,3.19A30.87,30.87,0,0,0,365,325.53c0,14.66,0,29.33,0,44-.06,12.28,5.31,21.47,15.8,27.55,2.59,1.49,3.32,3.12,3.27,5.89C383.9,411.29,384,419.63,384,428Zm315.32-60.2c-.14,3.21-.3,5.12-.3,7q0,53.49,0,107a118.61,118.61,0,0,0,1,15.42C706,541.28,747,577,791.45,577h89.16V449H854.26c-20.68,0-37.5-14.15-40.9-34.52-.51-3-.45-6.18-.74-10.48H783.54c-6.5,0-13,0-19.49,0-1.29,0-2.79.08-3.81-.52-7.73-4.53-15.31-9.32-23-13.84C725,382.5,712.75,375.51,699.31,367.76ZM482.06,679.11c-6.22,4.15-13,7.83-18.82,12.7-15.72,13.16-20.22,30.49-16.16,50,3.7,17.83,15.79,28.48,32.84,32.63,28.42,6.93,54.14,1.3,75.81-19.29,1.17-1.11,2.37-2.2,3.49-3.24,4.35,5.11,8.29,10.06,12.56,14.69,10.9,11.81,24.34,12.36,38.66,8.28,1-.3,2.51-1.56,2.56-2.44.26-4.71.12-9.45.12-14.38-19.68,6.1-27.55,3.53-42.88-20.5,18.63-27.59,29.59-57.28,24.87-91.22H577.74c4.09,27.65-1.09,52.86-16.87,76.48-12.22-17.75-25-33.52-43.82-41.87,6.3-4.33,13.24-7.93,18.71-13.09,19.84-18.73,12.41-50-13.7-57.66-6.4-1.88-13.49-2.26-20.21-2C478.27,609,463,626.54,465,649.79c.81,9,4.7,16.56,10.9,23C478.11,675.07,480.31,677.31,482.06,679.11ZM33.89,611.79V773.94c17.89,0,35.41.68,52.86-.16,24-1.15,42.31-17.33,45.64-39.41,3.83-25.43-10.74-43.26-31.44-46.7a21.91,21.91,0,0,1-3-1c1.34-.67,2.07-1,2.8-1.4,17.8-8.61,26-24,23.3-43.68-2.11-15.3-15-27.86-33.9-29.43C71.67,610.59,52.94,611.79,33.89,611.79Zm723.76,75,3.36-1.67c17.67-8.64,25.88-24.25,23-43.84-2.19-15.09-15.07-27.64-33.63-29.13s-37.54-.33-56.62-.33v162c18.28,0,36.33,1.07,54.21-.26,24.42-1.83,41.27-17.88,44.57-40,3.21-21.48-8.18-39.89-28-45.19C762.57,687.9,760.51,687.47,757.65,686.81ZM929.2,714c.14-12.87-2.18-26-9.88-37.72C907.2,657.88,889.1,653,868.43,654,844,655.22,824.57,670.48,818,694a83.06,83.06,0,0,0-2.09,35.14c3.24,21.27,13.89,37.51,34.58,44.45,21.75,7.3,42.92,5.2,60.65-11.19C924.93,749.65,929.41,733.06,929.2,714Zm-638.35,37.1c0,6.26-.18,11.69.13,17.1a4.89,4.89,0,0,0,2.82,3.42c5.83,1.88,11.69,4.13,17.71,4.85,15.33,1.83,30.34.77,43.53-8.59,16.94-12,16.94-37.31-.3-48.83-6-4-12.95-6.72-19.5-10-6.39-3.17-13-5.92-19.17-9.52-5.83-3.4-7.95-9.92-6.38-16.51,1.94-8.13,10-13.46,20.86-13.81a57.33,57.33,0,0,1,31.61,8.13c0-5.87.14-11-.12-16.06a4.29,4.29,0,0,0-2.42-3.09c-19.17-6.3-38.08-7-55.49,4.91-18.59,12.73-18,38.69,1.07,50.59,6,3.76,12.83,6.24,19.25,9.36,5.83,2.82,11.81,5.39,17.37,8.67,6.1,3.61,8.05,9.59,7,16.4-1,6.47-5.12,10.71-11.3,11.87a85.62,85.62,0,0,1-19.24,1.46C308.5,761,299.76,756.83,290.85,751.06Zm811.31-73.73c0-5.87.14-11-.12-16.07a4.31,4.31,0,0,0-2.43-3.09c-19.36-6.34-38.43-7-55.9,5.2-18,12.58-17.39,38.29,1.1,50,6.12,3.89,13.09,6.44,19.65,9.64,5.82,2.83,11.81,5.39,17.37,8.68,6.1,3.6,8,9.59,7,16.4-1,6.47-5.13,10.71-11.31,11.86a85.62,85.62,0,0,1-19.24,1.46c-9.8-.41-18.54-4.6-27.44-10.38,0,6.27-.18,11.7.13,17.11a4.87,4.87,0,0,0,2.83,3.41c5.83,1.88,11.69,4.14,17.71,4.85,15.32,1.83,30.33.77,43.52-8.59,17-12,16.93-37.32-.31-48.83-6-4-13-6.72-19.49-10s-13-5.93-19.18-9.52c-5.83-3.41-7.94-9.93-6.37-16.51,2-8.13,10-13.46,20.87-13.81A57.28,57.28,0,0,1,1102.16,677.33ZM226,672.08v6.15c0,22.48-.18,45,.05,67.46.25,24.94,19.61,38.22,42.61,29.34,1.8-.69,4-2.71,4.3-4.4.64-3.86.2-7.91.2-12.37l-3.07,1.46c-13.58,6.51-25.12-.1-26.11-15-.09-1.49-.14-3-.14-4.49q0-31.49,0-63c0-1.61.14-3.23.24-5.29h28.75V657H243.75V622.89c-5.21,1.64-9.74,3.25-14.37,4.46-2.8.74-3.5,2.2-3.44,4.95.17,8.1.06,16.21.06,24.82H206.21v15ZM984,622.8l-18,5.75V657H946.17v15.14H966v5.94c0,22.48-.16,45,0,67.46.23,25.11,20.11,38.62,43,29.37,1.6-.64,3.73-2.3,3.9-3.7.53-4.14.19-8.39.19-13.09l-2.53,1.22c-14,7-25.71.45-26.64-15-.11-1.82-.13-3.66-.13-5.49q0-27.74,0-55.46V671.92h29V657H984ZM164.25,773.63h17.3V657.43h-17.3ZM857.39,405.94h23.32V367.65H857.39ZM161.84,615.8c0,6.8,4.43,11.2,11.19,11.23,7.07,0,12.11-4.9,12-11.72-.14-6.64-5.07-11.3-11.93-11.28S161.78,608.73,161.84,615.8Z"/><path d="M103,0V225.3c1.66-1.28,2.8-2.05,3.81-3C126.23,205,148.88,196.13,175,196c21.36-.14,42.5.3,63.25,6.77,57.34,17.87,100.17,70.45,105,130.1a8.66,8.66,0,0,1-3.52,6.69c-19.59,11.65-39.39,23-59.15,34.32a6.91,6.91,0,0,1-3.24,1.11c-14.62.07-29.25.05-44,.05-.39-4.17-.52-8-1.13-11.69a41.76,41.76,0,0,0-40.48-35.4c-11.32-.25-22.65-.05-34.76-.05v40.95h33.68V410.7H157.29v40.82c13.26-.55,26.52.12,39.36-1.92,20-3.18,34.72-21.17,36.18-41.72.08-1.13.19-2.25.33-3.86,10.63,0,21.16-.78,31.53.19,14.69,1.37,27.26-2.41,39.45-10.59s25.5-14.95,39.09-22.78a47.68,47.68,0,0,1,.74,5.71c0,18.49.87,37-.13,55.48-3,55-28.67,96.79-75.8,125.06A138.86,138.86,0,0,1,193.24,577c-12.62-.2-25.37-.17-37.81-2-18.56-2.7-34.56-11.58-48.47-24.15-1-.88-2-1.75-3.66-3.22V577H0V0Z"/><path d="M1169,533c-2.69,9.1-5.76,18-12.18,25.32-10,11.49-22.52,18.52-37.83,18.57-67.65.25-135.3.11-203,.11h-3.72V450.18h187.31V423H962.91A51.18,51.18,0,0,1,912,372.15q0-60.73,0-121.48C912,221.28,937.2,196,966.54,196q101.24,0,202.46,0V325H993.39v27h5.85q57.23,0,114.44,0c18,0,32.39,7.54,43.69,21.39,6.13,7.52,9.07,16.46,11.63,25.59Z"/><path d="M719,0c4.15,1,8.32,1.94,12.45,3C772.58,13.52,802,51.47,802,94v102h78.75V323.39h-67.6V374c-11.58.34-22.79.44-34,1.08a30.67,30.67,0,0,1-18.31-4.78c-18.85-11.28-37.94-22.16-57-33-3.48-2-4.87-4.39-4.87-8.32q.09-159.74,0-319.46c0-4.4,1.94-7.13,5.08-9.54Z"/><path class="cls-1" d="M1169,399c-2.56-9.13-5.5-18.07-11.63-25.59-11.3-13.85-25.7-21.36-43.69-21.39q-57.23-.1-114.44,0h-5.85V325H1169Z"/><path d="M384,428c0-8.33-.1-16.67.05-25,.05-2.77-.68-4.4-3.27-5.89C370.29,391,364.92,381.8,365,369.52c.07-14.66,0-29.33,0-44a30.87,30.87,0,0,1,29.48-30.65,7.35,7.35,0,0,0,5.2-3.19c11.4-20.54,26.81-37.28,46.86-49.52,4-2.44,3.44-5.51,3.44-8.88,0-33.64,22.26-61.79,55-69.57,44.12-10.49,87.07,23.38,86.92,68.72,0,4.44,1.08,7,5.11,9.45a128.13,128.13,0,0,1,46.87,49.43c1.44,2.66,3,3.66,6.09,3.81,15,.76,27.88,14.36,28,29.37.13,15.67.21,31.33,0,47-.17,10.8-5.34,19.15-14.43,24.76-2.89,1.78-3.6,3.66-3.57,6.76.14,13.84.06,27.67.06,41.5,0,69.37-53.89,127.44-123,132.31-32.8,2.31-64.3-2.12-92.23-21C405.9,529.61,385.39,493,384,446,383.84,440,384,434,384,428Zm102-12.43q0,35,0,70a34.5,34.5,0,1,0,69,0q0-70,0-140a34.5,34.5,0,1,0-69,0Q486,380.53,486,415.53ZM553.74,234.8c1.23-15.07,0-29.17-14.53-37.24-12.74-7.1-26.37-7-38.85.88-13.35,8.48-14.29,22.05-13.05,36.36Z"/><path d="M699.31,367.76c13.44,7.75,25.71,14.74,37.89,21.88,7.73,4.52,15.31,9.31,23,13.84,1,.6,2.52.51,3.81.52,6.5.05,13,0,19.49,0h29.08c.29,4.3.23,7.44.74,10.48,3.4,20.37,20.22,34.51,40.9,34.52h26.35V577H791.45C747,577,706,541.28,700.06,497.19a118.61,118.61,0,0,1-1-15.42q-.13-53.49,0-107C699,372.88,699.17,371,699.31,367.76Z"/><path d="M482.06,679.11c-1.75-1.8-3.95-4-6.13-6.3-6.2-6.46-10.09-14.06-10.9-23C463,626.54,478.27,609,501.85,608.18c6.72-.23,13.81.15,20.21,2,26.11,7.68,33.54,38.93,13.7,57.66-5.47,5.16-12.41,8.76-18.71,13.09,18.83,8.35,31.6,24.12,43.82,41.87,15.78-23.62,21-48.83,16.87-76.48h17.37c4.72,33.94-6.24,63.63-24.87,91.22,15.33,24,23.2,26.6,42.88,20.5,0,4.93.14,9.67-.12,14.38,0,.88-1.52,2.14-2.56,2.44-14.32,4.08-27.76,3.53-38.66-8.28-4.27-4.63-8.21-9.58-12.56-14.69-1.12,1-2.32,2.13-3.49,3.24-21.67,20.59-47.39,26.22-75.81,19.29-17.05-4.15-29.14-14.8-32.84-32.63-4.06-19.52.44-36.85,16.16-50C469.05,686.94,475.84,683.26,482.06,679.11Zm18.83,82.13c18.29-.41,33.68-7.13,46.55-20,2.47-2.47,3.29-4.42.86-7.53-4.2-5.37-7.9-11.12-11.95-16.6a79,79,0,0,0-35.61-27.19c-1.71-.66-4.22-1.17-5.61-.41-6.82,3.73-14.13,7.07-19.89,12.12-11,9.66-13.51,22.66-10.14,36.5,3,12.34,12.29,18.51,24,21.43C492.91,760.53,497,760.71,500.89,761.24Zm5.44-139c-16.47,0-26.48,11.14-24.22,27a26.73,26.73,0,0,0,9.9,17.4c9.69,7.85,7.67,6.8,17.43,2.46a55.76,55.76,0,0,0,10.72-6.31,23.11,23.11,0,0,0,8.31-26.68C525.46,627.46,517,622.17,506.33,622.2Z"/><path d="M33.89,611.79c19,0,37.78-1.2,56.28.34,18.94,1.57,31.79,14.13,33.9,29.43,2.71,19.67-5.5,35.07-23.3,43.68-.73.35-1.46.73-2.8,1.4a21.91,21.91,0,0,0,3,1c20.7,3.44,35.27,21.27,31.44,46.7-3.33,22.08-21.64,38.26-45.64,39.41-17.45.84-35,.16-52.86.16ZM52,757.06c12.35,0,24.22.9,35.89-.23,15-1.45,25-12.77,25.9-27.14,1-15.69-6.16-26.11-21.07-30.2-13.34-3.65-27-2.27-40.72-2.35Zm0-76.36c8.67,0,16.87.68,24.88-.24A42.61,42.61,0,0,0,93.66,675c10.9-6.57,13.17-17.38,11.34-29.17-1.56-10-8.34-15.75-17.75-17-11.56-1.58-23.33-1.63-35.24-2.36Z"/><path d="M757.65,686.81c2.86.66,4.92,1.09,7,1.63,19.79,5.3,31.18,23.71,28,45.19-3.3,22.09-20.15,38.14-44.57,40-17.88,1.33-35.93.26-54.21.26v-162c19.08,0,38-1.17,56.62.33s31.44,14,33.63,29.13c2.85,19.59-5.36,35.2-23,43.84Zm-45.71,71.73c12.73-.56,25-.84,37.21-1.81,3.65-.29,7.39-2.1,10.66-4,10.72-6.1,14.54-16,14-27.79-.5-10.67-5.17-18.89-15.2-23.3-15-6.63-30.91-4.09-46.66-4.69Zm.09-77.79c8.52,0,16.57.71,24.41-.23a44.9,44.9,0,0,0,17.26-5.59c10.53-6.26,12.86-16.7,11.46-28.2-1.11-9.11-6.6-14.75-15.06-17.35-12.45-3.81-25.25-2-38.07-2.28Z"/><path d="M929.2,714c.21,19.1-4.27,35.69-18.05,48.42-17.73,16.39-38.9,18.49-60.65,11.19-20.69-6.94-31.34-23.18-34.58-44.45A83.06,83.06,0,0,1,818,694c6.56-23.5,26-38.76,50.42-39.94,20.67-1,38.77,3.84,50.89,22.2C927,687.92,929.34,701.09,929.2,714Zm-17.72,3.49c-.59-6.1-.83-10.76-1.51-15.35-2.8-19-14.32-30.57-32.31-32.75s-33.69,6.53-40.27,23.57c-6,15.46-6.15,31.29.49,46.71s21.16,23.61,38.8,22.2c15.93-1.27,27.72-11,32-27.07C910.27,728.7,910.71,722.34,911.48,717.45Z"/><path d="M290.85,751.06c8.91,5.77,17.65,10,27.45,10.38A85.62,85.62,0,0,0,337.54,760c6.18-1.16,10.33-5.4,11.3-11.87,1-6.81-.92-12.79-7-16.4-5.56-3.28-11.54-5.85-17.37-8.67-6.42-3.12-13.23-5.6-19.25-9.36-19.07-11.9-19.66-37.86-1.07-50.59,17.41-11.93,36.32-11.21,55.49-4.91a4.29,4.29,0,0,1,2.42,3.09c.26,5.09.12,10.19.12,16.06a57.33,57.33,0,0,0-31.61-8.13c-10.82.35-18.92,5.68-20.86,13.81-1.57,6.59.55,13.11,6.38,16.51,6.14,3.6,12.78,6.35,19.17,9.52,6.55,3.25,13.47,6,19.5,10,17.24,11.52,17.24,36.8.3,48.83-13.19,9.36-28.2,10.42-43.53,8.59-6-.72-11.88-3-17.71-4.85a4.89,4.89,0,0,1-2.82-3.42C290.67,762.75,290.85,757.32,290.85,751.06Z"/><path d="M1102.16,677.33a57.28,57.28,0,0,0-31.6-8.13c-10.82.35-18.92,5.68-20.87,13.81-1.57,6.58.54,13.1,6.37,16.51,6.15,3.59,12.78,6.35,19.18,9.52s13.46,5.94,19.49,10c17.24,11.51,17.26,36.8.31,48.83-13.19,9.36-28.2,10.42-43.52,8.59-6-.71-11.88-3-17.71-4.85a4.87,4.87,0,0,1-2.83-3.41c-.31-5.41-.13-10.84-.13-17.11,8.9,5.78,17.64,10,27.44,10.38a85.62,85.62,0,0,0,19.24-1.46c6.18-1.15,10.33-5.39,11.31-11.86,1-6.81-.91-12.8-7-16.4-5.56-3.29-11.55-5.85-17.37-8.68-6.56-3.2-13.53-5.75-19.65-9.64-18.49-11.74-19.1-37.45-1.1-50,17.47-12.22,36.54-11.54,55.9-5.2a4.31,4.31,0,0,1,2.43,3.09C1102.3,666.35,1102.16,671.46,1102.16,677.33Z"/><path d="M226,672.08H206.21v-15H226c0-8.61.11-16.72-.06-24.82-.06-2.75.64-4.21,3.44-4.95,4.63-1.21,9.16-2.82,14.37-4.46V657h29.09V672H244.09c-.1,2.06-.24,3.68-.24,5.29q0,31.49,0,63c0,1.5,0,3,.14,4.49,1,14.87,12.53,21.48,26.11,15l3.07-1.46c0,4.46.44,8.51-.2,12.37-.28,1.69-2.5,3.71-4.3,4.4-23,8.88-42.36-4.4-42.61-29.34-.23-22.49-.05-45-.05-67.46Z"/><path d="M984,622.8V657h28.88v14.9h-29v11.49q0,27.72,0,55.46c0,1.83,0,3.67.13,5.49.93,15.47,12.62,22,26.64,15l2.53-1.22c0,4.7.34,9-.19,13.09-.17,1.4-2.3,3.06-3.9,3.7-22.89,9.25-42.77-4.26-43-29.37-.21-22.49,0-45,0-67.46v-5.94H946.17V657H966V628.55Z"/><path d="M164.25,773.63V657.43h17.3v116.2Z"/><path d="M857.39,405.94V367.65h23.32v38.29Z"/><path d="M161.84,615.8c-.06-7.07,4.41-11.74,11.23-11.77s11.79,4.64,11.93,11.28c.14,6.82-4.9,11.75-12,11.72C166.27,627,161.89,622.6,161.84,615.8Z"/><path class="cls-1" d="M486,415.53q0-35,0-70a34.5,34.5,0,1,1,69,0q0,70,0,140a34.5,34.5,0,1,1-69,0Q486,450.53,486,415.53Z"/><path class="cls-1" d="M553.74,234.8H487.31c-1.24-14.31-.3-27.88,13.05-36.36,12.48-7.92,26.11-8,38.85-.88C553.7,205.63,555,219.73,553.74,234.8Z"/><path class="cls-1" d="M500.89,761.24c-3.94-.53-8-.71-11.82-1.66-11.68-2.92-21-9.09-24-21.43-3.37-13.84-.86-26.84,10.14-36.5,5.76-5,13.07-8.39,19.89-12.12,1.39-.76,3.9-.25,5.61.41a79,79,0,0,1,35.61,27.19c4,5.48,7.75,11.23,11.95,16.6,2.43,3.11,1.61,5.06-.86,7.53C534.57,754.11,519.18,760.83,500.89,761.24Z"/><path class="cls-1" d="M506.33,622.2c10.69,0,19.13,5.26,22.14,13.88a23.11,23.11,0,0,1-8.31,26.68,55.76,55.76,0,0,1-10.72,6.31c-9.76,4.34-7.74,5.39-17.43-2.46a26.73,26.73,0,0,1-9.9-17.4C479.85,633.34,489.86,622.24,506.33,622.2Z"/><path class="cls-1" d="M52,757.06V697.14c13.74.08,27.38-1.3,40.72,2.35,14.91,4.09,22,14.51,21.07,30.2-.88,14.37-10.86,25.69-25.9,27.14C76.25,758,64.38,757.06,52,757.06Z"/><path class="cls-1" d="M52,680.7V626.4c11.91.73,23.68.78,35.24,2.36,9.41,1.28,16.19,7,17.75,17,1.83,11.79-.44,22.6-11.34,29.17a42.61,42.61,0,0,1-16.77,5.5C68.88,681.38,60.68,680.7,52,680.7Z"/><path class="cls-1" d="M711.94,758.54V697c15.75.6,31.62-1.94,46.66,4.69,10,4.41,14.7,12.63,15.2,23.3.55,11.83-3.27,21.69-14,27.79-3.27,1.87-7,3.68-10.66,4C736.94,757.7,724.67,758,711.94,758.54Z"/><path class="cls-1" d="M712,680.75V627.1c12.82.29,25.62-1.53,38.07,2.28,8.46,2.6,13.95,8.24,15.06,17.35,1.4,11.5-.93,21.94-11.46,28.2a44.9,44.9,0,0,1-17.26,5.59C728.6,681.46,720.55,680.75,712,680.75Z"/><path class="cls-1" d="M911.48,717.45c-.77,4.89-1.21,11.25-2.82,17.31-4.26,16.08-16,25.8-32,27.07-17.64,1.41-32.14-6.7-38.8-22.2s-6.46-31.25-.49-46.71c6.58-17,22.2-25.77,40.27-23.57S907.17,683.14,910,702.1C910.65,706.69,910.89,711.35,911.48,717.45Z"/></g></g></svg>