<svg xmlns="http://www.w3.org/2000/svg" viewBox="0 0 1167 829.55"><defs><style>.cls-1{font-size:216px;font-family:MicrosoftJhengHeiRegular, Microsoft JhengHei;}</style></defs><title>bitsnbotslogo</title><g id="Layer_2" data-name="Layer 2"><g id="Layer_1-2" data-name="Layer 1"><rect x="365" y="295" width="60" height="104" rx="30"/><rect x="616" y="295" width="60" height="104" rx="30"/><path d="M287,401.87V403h-1.95l-.1.06,0-.06H232v1a46,46,0,0,1-46,46H156V409.64l33.84.1V368.2L156,368.06V326.67h33.72A42.28,42.28,0,0,1,232,369V374h45.28l64.43-37.2A150,150,0,0,0,192,196H174A100,100,0,0,0,74,296V475A100,100,0,0,0,174,575h18A150,150,0,0,0,342,425V370.12Z"/><path d="M520,162h0a70,70,0,0,0-70,70v8.8a1.2,1.2,0,0,0,1.2,1.2H588.8a1.2,1.2,0,0,0,1.2-1.2V232A70,70,0,0,0,520,162Zm33,72H486V222a30,30,0,0,1,30-30h7a30,30,0,0,1,30,30Z"/><path d="M553,224.75V234H486v-8.6A132,132,0,0,0,384,353.89v89.22A131.89,131.89,0,0,0,515.89,575h10.22A131.89,131.89,0,0,0,658,443.11V353.89A131.93,131.93,0,0,0,553,224.75Zm0,259.75A33.5,33.5,0,0,1,519.5,518h0A33.5,33.5,0,0,1,486,484.5v-140A33.5,33.5,0,0,1,519.5,311h0A33.5,33.5,0,0,1,553,344.5Z"/><rect width="101" height="575"/><path d="M967,196h200a0,0,0,0,1,0,0V323a0,0,0,0,1,0,0H912a0,0,0,0,1,0,0V251A55,55,0,0,1,967,196Z"/><rect x="912" y="288" width="79" height="71"/><path d="M912,352h200.3a54.7,54.7,0,0,1,54.7,54.7V421a0,0,0,0,1,0,0H962.55A50.55,50.55,0,0,1,912,370.45V352A0,0,0,0,1,912,352Z"/><rect x="1100" y="399" width="67" height="88"/><path d="M912,450h255a0,0,0,0,1,0,0v73.4a51.6,51.6,0,0,1-51.6,51.6H912a0,0,0,0,1,0,0V450A0,0,0,0,1,912,450Z"/><text class="cls-1" transform="translate(11.31 773.12)">Bits &amp; Bots</text><path d="M760.94,403l0,.06-.1-.06h-1.95v-1.13L699,367.31v114A93.74,93.74,0,0,0,792.73,575h0a7.26,7.26,0,0,0,7.27-7.27V403Z"/><path d="M768.58,374H800V93.73A93.74,93.74,0,0,0,706.27,0h0A7.26,7.26,0,0,0,699,7.27V333.83Z"/><path d="M813,407v-4H796V575h83V447H853A40,40,0,0,1,813,407Z"/><polygon points="796 196 796 374 813 374 813 323.67 879 323.67 879 196 796 196"/><rect x="850" y="359" width="29" height="49"/></g></g></svg>